<svg width="18" height="16" viewBox="0 0 18 16" fill="none" xmlns="http://www.w3.org/2000/svg">
<path d="M10.2857 1.8125C10.2857 1.19023 9.71113 0.6875 8.99996 0.6875C8.2888 0.6875 7.71425 1.19023 7.71425 1.8125V6.875H1.92854C1.21738 6.875 0.642822 7.37773 0.642822 8C0.642822 8.62227 1.21738 9.125 1.92854 9.125H7.71425V14.1875C7.71425 14.8098 8.2888 15.3125 8.99996 15.3125C9.71113 15.3125 10.2857 14.8098 10.2857 14.1875V9.125H16.0714C16.7826 9.125 17.3571 8.62227 17.3571 8C17.3571 7.37773 16.7826 6.875 16.0714 6.875H10.2857V1.8125Z" fill="#067C89"/>
</svg>
