<svg width="16" height="18" viewBox="0 0 16 18" fill="none" xmlns="http://www.w3.org/2000/svg">
<path d="M12.929 2.946C12.0711 2.08818 10.679 2.08818 9.82114 2.946L3.35239 9.41475C1.87231 10.8948 1.87231 13.2925 3.35239 14.7726C4.83247 16.2526 7.23013 16.2526 8.71021 14.7726L14.054 9.42881C14.4372 9.04561 15.0629 9.04561 15.4461 9.42881C15.8293 9.81201 15.8293 10.4378 15.4461 10.821L10.1024 16.1647C7.85239 18.4147 4.21021 18.4147 1.96021 16.1647C-0.289795 13.9147 -0.289795 10.2726 1.96021 8.02256L8.42896 1.55381C10.0567 -0.0739257 12.6934 -0.0739257 14.3211 1.55381C15.9489 3.18154 15.9489 5.81826 14.3211 7.446L8.13364 13.6335C7.12817 14.639 5.49692 14.639 4.49146 13.6335C3.48599 12.628 3.48599 10.9968 4.49146 9.99131L9.55396 4.92881C9.93716 4.54561 10.5629 4.54561 10.9461 4.92881C11.3293 5.31201 11.3293 5.93779 10.9461 6.321L5.88364 11.3835C5.6481 11.619 5.6481 12.0058 5.88364 12.2413C6.11919 12.4769 6.50591 12.4769 6.74146 12.2413L12.929 6.05381C13.7868 5.196 13.7868 3.80381 12.929 2.946Z" fill="#6F6F70"/>
</svg>
