<svg width="10" height="12" viewBox="0 0 10 12" fill="none" xmlns="http://www.w3.org/2000/svg">
<path d="M4.2168 11.0321C4.17399 10.9731 3.99092 10.7504 3.84033 10.5429C2.89323 9.32636 1.34303 6.15284 0.869852 4.49184C0.793819 4.23958 0.632893 3.60183 0.622559 3.26108C0.622559 2.93458 0.675708 2.62333 0.783484 2.32632C0.934075 1.95608 1.17103 1.65907 1.45081 1.49633C1.64495 1.39156 2.22591 1.22882 2.23624 1.22882C2.87182 1.06607 3.90455 0.976562 5.04579 0.976562C6.13315 0.976562 7.1238 1.06607 7.76897 1.19932C7.77931 1.21458 8.50126 1.37732 8.74855 1.55532C9.20032 1.88183 9.48084 2.51958 9.48084 3.20209V3.26108C9.46976 3.70558 9.18925 4.64034 9.17892 4.64034C8.705 6.21184 7.23083 9.31212 6.25126 10.5581C6.25126 10.5581 5.99953 10.909 5.8423 11.0616C5.61641 11.2996 5.33664 11.4176 5.05686 11.4176C4.74461 11.4176 4.45376 11.2844 4.2168 11.0321Z" fill="#238899"/>
</svg>
