<svg width="23" height="26" viewBox="0 0 23 26" fill="none" xmlns="http://www.w3.org/2000/svg">
<path d="M16.3832 0.843262C20.1507 0.843262 22.2485 3.01424 22.2485 6.73417V19.3332C22.2485 23.1141 20.1507 25.2363 16.3832 25.2363H6.16132C2.45358 25.2363 0.2948 23.1141 0.2948 19.3332V6.73417C0.2948 3.01424 2.45358 0.843262 6.16132 0.843262H16.3832ZM6.49062 17.6013C6.12473 17.5647 5.77103 17.7354 5.57588 18.0525C5.38074 18.3574 5.38074 18.7599 5.57588 19.077C5.77103 19.3819 6.12473 19.5649 6.49062 19.5161H16.0527C16.5393 19.4673 16.9064 19.0514 16.9064 18.5648C16.9064 18.0647 16.5393 17.65 16.0527 17.6013H6.49062ZM16.0527 12.0384H6.49062C5.96495 12.0384 5.53929 12.4665 5.53929 12.991C5.53929 13.5154 5.96495 13.9423 6.49062 13.9423H16.0527C16.5771 13.9423 17.004 13.5154 17.004 12.991C17.004 12.4665 16.5771 12.0384 16.0527 12.0384ZM10.1362 6.51463H6.49062V6.52683C5.96495 6.52683 5.53929 6.95371 5.53929 7.47816C5.53929 8.00261 5.96495 8.42948 6.49062 8.42948H10.1362C10.6618 8.42948 11.0887 8.00261 11.0887 7.46474C11.0887 6.94151 10.6618 6.51463 10.1362 6.51463Z" fill="#5D7285"/>
</svg>
