<svg width="24" height="26" viewBox="0 0 24 26" fill="none" xmlns="http://www.w3.org/2000/svg">
<path d="M13.1463 0.930176C14.0686 0.930176 14.9037 1.44243 15.3649 2.19861C15.5893 2.56451 15.7388 3.01578 15.7014 3.49144C15.6765 3.85734 15.7887 4.22323 15.9881 4.56473C16.6238 5.60143 18.0323 5.99172 19.1291 5.40629C20.3631 4.69889 21.9211 5.12577 22.6316 6.33322L23.4667 7.77241C24.1896 8.97987 23.7908 10.5288 22.5443 11.224C21.4849 11.846 21.1109 13.2242 21.7466 14.2731C21.9461 14.6025 22.1704 14.883 22.5194 15.0537C22.9557 15.2855 23.2922 15.6514 23.529 16.0172C23.9902 16.7734 23.9528 17.7004 23.5041 18.5175L22.6316 19.9811C22.1704 20.7617 21.3104 21.2495 20.4254 21.2495C19.9892 21.2495 19.503 21.1276 19.1042 20.8836C18.7801 20.6763 18.4062 20.6031 18.0073 20.6031C16.7734 20.6031 15.7388 21.6154 15.7014 22.8229C15.7014 24.2255 14.5547 25.3232 13.1213 25.3232H11.4262C9.98032 25.3232 8.8336 24.2255 8.8336 22.8229C8.80868 21.6154 7.77414 20.6031 6.54017 20.6031C6.12885 20.6031 5.75492 20.6763 5.44331 20.8836C5.04446 21.1276 4.54588 21.2495 4.1221 21.2495C3.22467 21.2495 2.36463 20.7617 1.90345 19.9811L1.04342 18.5175C0.582237 17.7248 0.557308 16.7734 1.01849 16.0172C1.21792 15.6514 1.59185 15.2855 2.01563 15.0537C2.36463 14.883 2.58899 14.6025 2.80088 14.2731C3.4241 13.2242 3.05017 11.846 1.9907 11.224C0.756737 10.5288 0.357879 8.97987 1.06834 7.77241L1.90345 6.33322C2.62638 5.12577 4.17196 4.69889 5.41839 5.40629C6.50278 5.99172 7.91125 5.60143 8.54693 4.56473C8.74635 4.22323 8.85853 3.85734 8.8336 3.49144C8.80868 3.01578 8.94578 2.56451 9.18261 2.19861C9.64378 1.44243 10.4789 0.954569 11.3888 0.930176H13.1463ZM12.2862 9.68726C10.3293 9.68726 8.74635 11.224 8.74635 13.1389C8.74635 15.0537 10.3293 16.5783 12.2862 16.5783C14.2431 16.5783 15.7887 15.0537 15.7887 13.1389C15.7887 11.224 14.2431 9.68726 12.2862 9.68726Z" fill="#5D7285"/>
</svg>
