<svg width="25" height="25" viewBox="0 0 25 25" fill="none" xmlns="http://www.w3.org/2000/svg">
<path d="M12.296 0.38623C19.2236 0.38623 24.4681 6.06612 24.4681 12.5644C24.4681 20.101 18.321 24.7792 12.2716 24.7792C10.2713 24.7792 8.05158 24.2418 6.2709 23.1913C5.64887 22.8126 5.12442 22.5317 4.45362 22.7516L1.98992 23.4845C1.3679 23.6799 0.806863 23.1913 0.989811 22.5317L1.80698 19.7956C1.94114 19.4169 1.91674 19.0138 1.7216 18.6962C0.672702 16.7663 0.0750732 14.6531 0.0750732 12.6011C0.0750732 6.17606 5.2098 0.38623 12.296 0.38623ZM17.8698 11.0498C17.0038 11.0498 16.3086 11.746 16.3086 12.6133C16.3086 13.4683 17.0038 14.1768 17.8698 14.1768C18.7357 14.1768 19.4309 13.4683 19.4309 12.6133C19.4309 11.746 18.7357 11.0498 17.8698 11.0498ZM12.2472 11.0498C11.3934 11.0376 10.686 11.746 10.686 12.6011C10.686 13.4683 11.3812 14.1645 12.2472 14.1768C13.1131 14.1768 13.8083 13.4683 13.8083 12.6133C13.8083 11.746 13.1131 11.0498 12.2472 11.0498ZM6.62459 11.0498C5.75864 11.0498 5.06344 11.746 5.06344 12.6133C5.06344 13.4683 5.77084 14.1768 6.62459 14.1768C7.49055 14.1645 8.18575 13.4683 8.18575 12.6133C8.18575 11.746 7.49055 11.0498 6.62459 11.0498Z" fill="#5D7285"/>
</svg>
