<svg width="25" height="26" viewBox="0 0 25 26" fill="none" xmlns="http://www.w3.org/2000/svg">
<path d="M17.9616 0.769441C19.7161 0.659786 21.4462 1.26898 22.7499 2.463C23.9439 3.76668 24.5531 5.49679 24.4557 7.26346V18.6432C24.5653 20.4099 23.9439 22.14 22.7621 23.4437C21.4584 24.6377 19.7161 25.2469 17.9616 25.1372H6.58175C4.81507 25.2469 3.08494 24.6377 1.78125 23.4437C0.587222 22.14 -0.0219772 20.4099 0.0876787 18.6432V7.26346C-0.0219772 5.49679 0.587222 3.76668 1.78125 2.463C3.08494 1.26898 4.81507 0.659786 6.58175 0.769441H17.9616ZM17.6448 6.33748C16.8894 5.58208 15.671 5.58208 14.9156 6.33748L14.0993 7.16599C13.9774 7.28782 13.9774 7.49495 14.0993 7.61679C14.0993 7.61679 14.1232 7.64056 14.1658 7.68287L14.4654 7.98093C14.6388 8.15341 14.8552 8.36881 15.0725 8.58541L15.8092 9.32183C15.963 9.47626 16.065 9.57975 16.0731 9.59058C16.2071 9.73679 16.2924 9.93173 16.2924 10.151C16.2924 10.5897 15.9391 10.9552 15.4882 10.9552C15.2811 10.9552 15.0862 10.8699 14.9522 10.7359L12.9174 8.71334C12.82 8.61587 12.6494 8.61587 12.5519 8.71334L6.74014 14.5251C6.33807 14.9271 6.10657 15.4632 6.09439 16.0359L6.02128 18.9234C6.02128 19.0818 6.07002 19.228 6.17968 19.3377C6.28933 19.4474 6.43554 19.5083 6.59393 19.5083H9.45717C10.042 19.5083 10.6025 19.2768 11.0289 18.8625L19.2287 10.6384C19.972 9.883 19.972 8.66461 19.2287 7.92139L17.6448 6.33748Z" fill="#5D7285"/>
</svg>
