<svg width="31" height="24" viewBox="0 0 31 24" fill="none" xmlns="http://www.w3.org/2000/svg">
<path d="M27.7539 10.5975V16.378C27.7539 20.2316 26.463 21.1951 21.2995 21.1951H8.39082C3.22733 21.1951 1.93646 20.2316 1.93646 16.378V6.74383C1.93646 2.89017 3.22733 1.92676 8.39082 1.92676H10.3271C12.2634 1.92676 12.6894 2.35066 13.4252 3.08286L15.3615 5.00968C15.852 5.49139 16.136 5.78042 17.4269 5.78042H21.2995C26.463 5.78042 27.7539 6.74383 27.7539 10.5975Z" stroke="#787486" stroke-miterlimit="10"/>
<path d="M10.327 1.92676H21.9448C24.5265 1.92676 25.8174 2.89017 25.8174 4.817V6.14651" stroke="#787486" stroke-miterlimit="10" stroke-linecap="round" stroke-linejoin="round"/>
<path d="M18.0722 14.4512H11.6178" stroke="#787486" stroke-miterlimit="10" stroke-linecap="round" stroke-linejoin="round"/>
</svg>
