<svg width="18" height="18" viewBox="0 0 18 18" fill="none" xmlns="http://www.w3.org/2000/svg">
<g clip-path="url(#clip0_564_8121)">
<path d="M5.06239 7.3125C4.44013 7.3125 3.93739 7.81523 3.93739 8.4375C3.93739 9.05977 4.44013 9.5625 5.06239 9.5625C5.68466 9.5625 6.18739 9.05977 6.18739 8.4375C6.18739 7.81523 5.68466 7.3125 5.06239 7.3125ZM8.99989 7.3125C8.37763 7.3125 7.87489 7.81523 7.87489 8.4375C7.87489 9.05977 8.37763 9.5625 8.99989 9.5625C9.62216 9.5625 10.1249 9.05977 10.1249 8.4375C10.1249 7.81523 9.62216 7.3125 8.99989 7.3125ZM12.9374 7.3125C12.3151 7.3125 11.8124 7.81523 11.8124 8.4375C11.8124 9.05977 12.3151 9.5625 12.9374 9.5625C13.5597 9.5625 14.0624 9.05977 14.0624 8.4375C14.0624 7.81523 13.5597 7.3125 12.9374 7.3125ZM8.99989 1.125C4.0288 1.125 -0.000108149 4.39805 -0.000108149 8.4375C-0.000108149 10.1109 0.699501 11.6437 1.85966 12.8777C1.33583 14.2629 0.245986 15.4371 0.228407 15.4512C-0.00362377 15.6973 -0.066905 16.0559 0.0666887 16.3652C0.200282 16.6746 0.506142 16.875 0.843642 16.875C3.00575 16.875 4.71083 15.9715 5.73388 15.2473C6.74989 15.5672 7.84677 15.75 8.99989 15.75C13.971 15.75 17.9999 12.477 17.9999 8.4375C17.9999 4.39805 13.971 1.125 8.99989 1.125ZM8.99989 14.0625C8.06122 14.0625 7.1331 13.9184 6.24364 13.6371L5.44559 13.384L4.76005 13.8691C4.25731 14.2242 3.56825 14.6215 2.73856 14.8887C2.9952 14.4633 3.24481 13.9852 3.43817 13.4754L3.81083 12.4875L3.08661 11.7211C2.45028 11.0426 1.68739 9.92109 1.68739 8.4375C1.68739 5.33672 4.96747 2.8125 8.99989 2.8125C13.0323 2.8125 16.3124 5.33672 16.3124 8.4375C16.3124 11.5383 13.0323 14.0625 8.99989 14.0625Z" fill="#6F6F70"/>
</g>
<defs>
<clipPath id="clip0_564_8121">
<rect width="18" height="18" fill="white"/>
</clipPath>
</defs>
</svg>
