<svg width="8" height="8" viewBox="0 0 8 8" fill="none" xmlns="http://www.w3.org/2000/svg">
<path d="M4.6001 1.11265C4.6001 0.822256 4.33197 0.587646 4.0001 0.587646C3.66822 0.587646 3.4001 0.822256 3.4001 1.11265V3.47515H0.700098C0.368223 3.47515 0.100098 3.70976 0.100098 4.00015C0.100098 4.29054 0.368223 4.52515 0.700098 4.52515H3.4001V6.88765C3.4001 7.17804 3.66822 7.41265 4.0001 7.41265C4.33197 7.41265 4.6001 7.17804 4.6001 6.88765V4.52515H7.3001C7.63197 4.52515 7.9001 4.29054 7.9001 4.00015C7.9001 3.70976 7.63197 3.47515 7.3001 3.47515H4.6001V1.11265Z" fill="#067C89"/>
</svg>
